<?xml version="1.0" standalone="no"?>
<!DOCTYPE svg PUBLIC "-//W3C//DTD SVG 20010904//EN"
 "http://www.w3.org/TR/2001/REC-SVG-20010904/DTD/svg10.dtd">
<svg version="1.0" xmlns="http://www.w3.org/2000/svg"
 width="512.000000pt" height="512.000000pt" viewBox="0 0 512.000000 512.000000"
 preserveAspectRatio="xMidYMid meet">
<metadata>
Created by potrace 1.11, written by Peter Selinger 2001-2013
</metadata>
<g transform="translate(0.000000,512.000000) scale(0.100000,-0.100000)"
fill="#000000" stroke="none">
<path d="M2378 5115 c-1 -1 -39 -5 -82 -9 -44 -4 -82 -9 -85 -11 -4 -2 -34 -7
-66 -10 -109 -13 -388 -87 -490 -130 -16 -7 -48 -20 -70 -28 -132 -50 -336
-161 -481 -262 -333 -233 -599 -529 -793 -883 -33 -62 -61 -115 -61 -117 0 -2
-15 -36 -34 -77 -72 -157 -148 -402 -170 -552 -4 -21 -8 -41 -10 -45 -4 -6
-12 -69 -26 -201 -8 -77 -6 -469 3 -505 3 -12 8 -48 12 -80 8 -67 7 -61 30
-170 157 -758 665 -1419 1355 -1761 159 -79 186 -90 346 -143 133 -44 277 -80
390 -96 22 -4 50 -8 64 -11 69 -12 173 -18 345 -18 234 -1 298 5 505 45 58 12
115 23 128 25 37 7 320 103 370 125 672 301 1152 804 1404 1474 16 44 31 85
32 90 1 6 12 42 23 80 27 89 60 235 69 300 3 28 8 58 10 69 19 101 26 452 12
596 -21 210 -71 429 -141 620 -217 592 -638 1081 -1187 1380 -81 43 -131 67
-275 130 -134 58 -428 135 -595 155 -25 3 -56 8 -70 11 -26 6 -456 14 -462 9z"/>
</g>
</svg>
